<?xml version="1.0" standalone="no"?>
<!DOCTYPE svg PUBLIC "-//W3C//DTD SVG 20010904//EN"
 "http://www.w3.org/TR/2001/REC-SVG-20010904/DTD/svg10.dtd">
<svg version="1.0" xmlns="http://www.w3.org/2000/svg"
 width="512.000000pt" height="512.000000pt" viewBox="0 0 512.000000 512.000000"
 preserveAspectRatio="xMidYMid meet">
<metadata>
Created by potrace 1.14, written by Peter Selinger 2001-2017
</metadata>
<g transform="translate(0.000000,512.000000) scale(0.100000,-0.100000)"
fill="#000000" stroke="none">
<path d="M2475 5084 c-33 -20 -161 -95 -285 -166 -124 -71 -233 -139 -243
-151 -13 -15 -17 -31 -14 -52 5 -30 2 -33 -55 -64 -56 -31 -60 -32 -78 -16
-32 29 -63 21 -182 -48 -62 -36 -180 -104 -263 -151 -82 -47 -157 -90 -165
-95 -8 -6 -37 -22 -65 -37 -27 -14 -57 -32 -66 -40 -8 -8 -18 -14 -21 -14 -3
0 -115 -63 -249 -141 -134 -78 -288 -166 -341 -197 -66 -38 -100 -64 -107 -82
-13 -34 -13 -2493 0 -2535 8 -27 56 -58 415 -265 223 -129 425 -246 448 -258
22 -13 86 -50 141 -82 55 -32 116 -67 136 -78 75 -42 84 -47 99 -58 8 -7 40
-25 70 -41 30 -17 84 -47 120 -68 36 -20 81 -46 100 -57 19 -11 76 -44 125
-73 158 -93 479 -277 510 -294 53 -27 71 -24 172 35 54 31 112 64 128 74 101
58 568 327 750 433 66 38 145 83 175 100 30 16 62 36 71 43 8 8 18 14 21 14 3
0 86 46 184 103 99 57 311 179 471 272 257 148 294 172 302 199 13 41 12 2513
-1 2541 -5 12 -80 62 -171 115 -89 51 -258 149 -375 217 -117 68 -234 135
-260 150 -26 14 -143 82 -261 150 -117 68 -239 138 -270 155 -31 17 -60 34
-66 38 -5 4 -26 17 -45 28 -31 17 -254 145 -509 293 -46 27 -85 49 -86 49 -2
0 -34 19 -71 41 -91 56 -115 57 -189 13z"/>
</g>
</svg>
